<svg width="800" height="800" viewBox="0 0 48 48" fill="none" xmlns="http://www.w3.org/2000/svg" stroke="#000000" ><g fill="#fff"><path d="M10 29v-3h3v3h-3z"/><path fill-rule="evenodd" clip-rule="evenodd" d="M32 44H8a4 4 0 01-4-4V8a4 4 0 014-4h24a4 4 0 014 4v32a4 4 0 01-4 4zM18 13a1 1 0 011-1h12a1 1 0 110 2H19a1 1 0 01-1-1zm1 3a1 1 0 100 2h12a1 1 0 100-2H19zm-3.293-3.707a1 1 0 010 1.414L11 18.414l-2.707-2.707a1 1 0 111.414-1.414L11 15.586l3.293-3.293a1 1 0 011.414 0zM19 24a1 1 0 100 2h12a1 1 0 100-2H19zm-1 5a1 1 0 011-1h12a1 1 0 110 2H19a1 1 0 01-1-1zm-4-5H9a1 1 0 00-1 1v5a1 1 0 001 1h5a1 1 0 001-1v-5a1 1 0 00-1-1zM44 40l-3 4-3-4V22h6v18zM40 15h2a2 2 0 012 2v4h-6v-4a2 2 0 012-2z"/></g></svg>